{
  "accessors": [
    {
      "bufferView": 2,
      "componentType": 5126,
      "count": 6225,
      "max": [
        0.9340237379074097,
        0.7268484234809875,
        0.9340236186981201
      ],
      "min": [
        -0.9340237379074097,
        -0.6494868993759155,
        -0.9400445222854614
      ],
      "type": "VEC3"
    },
    {
      "bufferView": 2,
      "byteOffset": 74700,
      "componentType": 5126,
      "count": 6225,
      "max": [
        1.0,
        0.0024310066364705563,
        1.0
      ],
      "min": [
        -1.0,
        -0.00255829025991261,
        -0.9951351881027222
      ],
      "type": "VEC3"
    },
    {
      "bufferView": 1,
      "componentType": 5126,
      "count": 6225,
      "max": [
        0.9998719692230225,
        0.9791151285171509
      ],
      "min": [
        0.0026518029626458883,
        0.009384840726852417
      ],
      "type": "VEC2"
    },
    {
      "bufferView": 0,
      "componentType": 5125,
      "count": 35712,
      "type": "SCALAR"
    },
    {
      "bufferView": 2,
      "byteOffset": 149400,
      "componentType": 5126,
      "count": 51941,
      "max": [
        0.953048586845398,
        1.7162599563598633,
        0.953048586845398
      ],
      "min": [
        -0.953048586845398,
        -1.1084963083267212,
        -0.953048586845398
      ],
      "type": "VEC3"
    },
    {
      "bufferView": 2,
      "byteOffset": 772692,
      "componentType": 5126,
      "count": 51941,
      "max": [
        0.9999937415122986,
        1.0,
        0.999993622303009
      ],
      "min": [
        -0.999993622303009,
        -1.0,
        -0.999993622303009
      ],
      "type": "VEC3"
    },
    {
      "bufferView": 1,
      "byteOffset": 49800,
      "componentType": 5126,
      "count": 51941,
      "max": [
        1.0000001192092896,
        1.0000001192092896
      ],
      "min": [
        0.0,
        0.0
      ],
      "type": "VEC2"
    },
    {
      "bufferView": 0,
      "byteOffset": 142848,
      "componentType": 5125,
      "count": 225408,
      "type": "SCALAR"
    }
  ],
  "asset": {
    "extras": {
      "author": "vatsalpanghal (https://sketchfab.com/vatsalpanghal)",
      "license": "CC-BY-4.0 (http://creativecommons.org/licenses/by/4.0/)",
      "source": "https://sketchfab.com/3d-models/whey-protien-powder-3d-model-432f9c3fbd2544edbce7019125a901ef",
      "title": "Whey Protien Powder 3D Model"
    },
    "generator": "Sketchfab-15.8.0",
    "version": "2.0"
  },
  "bufferViews": [
    {
      "buffer": 0,
      "byteLength": 1044480,
      "name": "floatBufferViews",
      "target": 34963
    },
    {
      "buffer": 0,
      "byteLength": 465328,
      "byteOffset": 1044480,
      "byteStride": 8,
      "name": "floatBufferViews",
      "target": 34962
    },
    {
      "buffer": 0,
      "byteLength": 1395984,
      "byteOffset": 1509808,
      "byteStride": 12,
      "name": "floatBufferViews",
      "target": 34962
    }
  ],
  "buffers": [
    {
      "byteLength": 2905792,
      "uri": "scene.bin"
    }
  ],
  "images": [
    {
      "uri": "textures/Label_baseColor.jpeg"
    }
  ],
  "materials": [
    {
      "doubleSided": true,
      "name": "Label",
      "pbrMetallicRoughness": {
        "baseColorTexture": {
          "index": 0
        },
        "metallicFactor": 0.413636,
        "roughnessFactor": 0.22400068266874718
      }
    },
    {
      "doubleSided": true,
      "name": "Black_Plastic",
      "pbrMetallicRoughness": {
        "baseColorFactor": [
          0.0,
          0.0,
          0.0,
          1.0
        ],
        "metallicFactor": 0.0,
        "roughnessFactor": 0.331818
      }
    }
  ],
  "meshes": [
    {
      "name": "Object_0",
      "primitives": [
        {
          "attributes": {
            "NORMAL": 1,
            "POSITION": 0,
            "TEXCOORD_0": 2
          },
          "indices": 3,
          "material": 0,
          "mode": 4
        }
      ]
    },
    {
      "name": "Object_1",
      "primitives": [
        {
          "attributes": {
            "NORMAL": 5,
            "POSITION": 4,
            "TEXCOORD_0": 6
          },
          "indices": 7,
          "material": 1,
          "mode": 4
        }
      ]
    }
  ],
  "nodes": [
    {
      "children": [
        1
      ],
      "matrix": [
        1.0,
        0.0,
        0.0,
        0.0,
        0.0,
        2.220446049250313e-16,
        -1.0,
        0.0,
        0.0,
        1.0,
        2.220446049250313e-16,
        0.0,
        0.0,
        0.0,
        0.0,
        1.0
      ],
      "name": "Sketchfab_model"
    },
    {
      "children": [
        2
      ],
      "name": "root"
    },
    {
      "children": [
        3
      ],
      "matrix": [
        1.0,
        0.0,
        0.0,
        0.0,
        0.0,
        2.220446049250313e-16,
        1.0,
        0.0,
        0.0,
        -1.0,
        2.220446049250313e-16,
        0.0,
        0.0,
        0.0,
        0.0,
        1.0
      ],
      "name": "GLTF_SceneRootNode"
    },
    {
      "children": [
        4,
        5
      ],
      "matrix": [
        11.757295672434624,
        0.0,
        -2.2947381566205376,
        0.0,
        0.0,
        11.979143142700195,
        0.0,
        0.0,
        2.2947381566205376,
        0.0,
        11.757295672434624,
        0.0,
        -27.591575622558594,
        -0.15272212028503418,
        -5.767326354980469,
        1.0
      ],
      "name": "Label_1"
    },
    {
      "mesh": 0,
      "name": "Object_4"
    },
    {
      "mesh": 1,
      "name": "Object_5"
    }
  ],
  "samplers": [
    {
      "magFilter": 9729,
      "minFilter": 9987,
      "wrapS": 10497,
      "wrapT": 10497
    }
  ],
  "scene": 0,
  "scenes": [
    {
      "name": "Sketchfab_Scene",
      "nodes": [
        0
      ]
    }
  ],
  "textures": [
    {
      "sampler": 0,
      "source": 0
    }
  ]
}
