{
  "accessors": [
    {
      "bufferView": 2,
      "componentType": 5126,
      "count": 1037,
      "max": [
        0.006863933056592941,
        0.002563161076977849,
        0.005053224973380566
      ],
      "min": [
        -0.006863933056592941,
        -0.0018058298155665398,
        -0.004986202344298363
      ],
      "type": "VEC3"
    },
    {
      "bufferView": 2,
      "byteOffset": 12444,
      "componentType": 5126,
      "count": 1037,
      "max": [
        0.9999887943267822,
        0.9999990463256836,
        0.9989503026008606
      ],
      "min": [
        -0.9999887943267822,
        -0.9999738931655884,
        -0.9981070756912231
      ],
      "type": "VEC3"
    },
    {
      "bufferView": 1,
      "componentType": 5126,
      "count": 1037,
      "max": [
        0.9771860837936401,
        0.8256561756134033
      ],
      "min": [
        0.022814152762293816,
        0.10763625055551529
      ],
      "type": "VEC2"
    },
    {
      "bufferView": 0,
      "componentType": 5125,
      "count": 4992,
      "type": "SCALAR"
    },
    {
      "bufferView": 2,
      "byteOffset": 24888,
      "componentType": 5126,
      "count": 65532,
      "max": [
        0.08459935337305069,
        0.07567106187343597,
        0.035258855670690536
      ],
      "min": [
        -0.10073235630989075,
        0.03690175339579582,
        -0.04350477457046509
      ],
      "type": "VEC3"
    },
    {
      "bufferView": 2,
      "byteOffset": 811272,
      "componentType": 5126,
      "count": 65532,
      "max": [
        1.0,
        1.0,
        0.9998881220817566
      ],
      "min": [
        -1.0,
        -0.9999865293502808,
        -1.0
      ],
      "type": "VEC3"
    },
    {
      "bufferView": 1,
      "byteOffset": 8296,
      "componentType": 5126,
      "count": 65532,
      "max": [
        0.8726682662963867,
        1.000312089920044
      ],
      "min": [
        0.0,
        0.0
      ],
      "type": "VEC2"
    },
    {
      "bufferView": 0,
      "byteOffset": 19968,
      "componentType": 5125,
      "count": 98418,
      "type": "SCALAR"
    },
    {
      "bufferView": 2,
      "byteOffset": 1597656,
      "componentType": 5126,
      "count": 65532,
      "max": [
        0.10073234885931015,
        0.07567106187343597,
        0.035258855670690536
      ],
      "min": [
        -0.10060834884643555,
        -0.0018675550818443298,
        -0.04350477457046509
      ],
      "type": "VEC3"
    },
    {
      "bufferView": 2,
      "byteOffset": 2384040,
      "componentType": 5126,
      "count": 65532,
      "max": [
        0.9999882578849792,
        0.9999244213104248,
        0.9998883008956909
      ],
      "min": [
        -0.9999793767929077,
        -0.9999865889549255,
        -1.0
      ],
      "type": "VEC3"
    },
    {
      "bufferView": 1,
      "byteOffset": 532552,
      "componentType": 5126,
      "count": 65532,
      "max": [
        0.7500001192092896,
        1.000312089920044
      ],
      "min": [
        0.0,
        0.0
      ],
      "type": "VEC2"
    },
    {
      "bufferView": 0,
      "byteOffset": 413640,
      "componentType": 5125,
      "count": 98298,
      "type": "SCALAR"
    },
    {
      "bufferView": 2,
      "byteOffset": 3170424,
      "componentType": 5126,
      "count": 65533,
      "max": [
        0.10073235630989075,
        0.059430867433547974,
        0.035258855670690536
      ],
      "min": [
        -0.10073234885931015,
        -0.0018675550818443298,
        -0.043346889317035675
      ],
      "type": "VEC3"
    },
    {
      "bufferView": 2,
      "byteOffset": 3956820,
      "componentType": 5126,
      "count": 65533,
      "max": [
        0.999988317489624,
        0.9999865293502808,
        0.9998883605003357
      ],
      "min": [
        -0.9999793767929077,
        -0.99992436170578,
        -0.9995902180671692
      ],
      "type": "VEC3"
    },
    {
      "bufferView": 1,
      "byteOffset": 1056808,
      "componentType": 5126,
      "count": 65533,
      "max": [
        0.875,
        1.000312089920044
      ],
      "min": [
        0.0,
        0.0
      ],
      "type": "VEC2"
    },
    {
      "bufferView": 0,
      "byteOffset": 806832,
      "componentType": 5125,
      "count": 98289,
      "type": "SCALAR"
    },
    {
      "bufferView": 2,
      "byteOffset": 4743216,
      "componentType": 5126,
      "count": 42143,
      "max": [
        0.10060834884643555,
        0.0746464654803276,
        0.035188306123018265
      ],
      "min": [
        -0.10068973898887634,
        -0.0018675513565540314,
        -0.04350477084517479
      ],
      "type": "VEC3"
    },
    {
      "bufferView": 2,
      "byteOffset": 5248932,
      "componentType": 5126,
      "count": 42143,
      "max": [
        0.9729877710342407,
        0.9999244213104248,
        0.9958277940750122
      ],
      "min": [
        -0.9999882578849792,
        -0.9999241232872009,
        -1.0
      ],
      "type": "VEC3"
    },
    {
      "bufferView": 1,
      "byteOffset": 1581072,
      "componentType": 5126,
      "count": 42143,
      "max": [
        0.7500001192092896,
        1.000312089920044
      ],
      "min": [
        0.234375,
        0.6266245245933533
      ],
      "type": "VEC2"
    },
    {
      "bufferView": 0,
      "byteOffset": 1199988,
      "componentType": 5125,
      "count": 63213,
      "type": "SCALAR"
    },
    {
      "bufferView": 2,
      "byteOffset": 5754648,
      "componentType": 5126,
      "count": 14443,
      "max": [
        0.0912143886089325,
        0.05991291627287865,
        0.019370699301362038
      ],
      "min": [
        -0.09120549261569977,
        0.013890590518712997,
        -0.02665197290480137
      ],
      "type": "VEC3"
    },
    {
      "bufferView": 2,
      "byteOffset": 5927964,
      "componentType": 5126,
      "count": 14443,
      "max": [
        1.0,
        0.9994374513626099,
        0.9994374513626099
      ],
      "min": [
        -1.0,
        -0.9994374513626099,
        -0.9994374513626099
      ],
      "type": "VEC3"
    },
    {
      "bufferView": 1,
      "byteOffset": 1918216,
      "componentType": 5126,
      "count": 14443,
      "max": [
        1.1732548475265503,
        1.157938003540039
      ],
      "min": [
        -0.16436633467674255,
        -0.17969313263893127
      ],
      "type": "VEC2"
    },
    {
      "bufferView": 0,
      "byteOffset": 1452840,
      "componentType": 5125,
      "count": 80064,
      "type": "SCALAR"
    },
    {
      "bufferView": 2,
      "byteOffset": 6101280,
      "componentType": 5126,
      "count": 5374,
      "max": [
        0.08012779802083969,
        0.046590883284807205,
        0.03546792268753052
      ],
      "min": [
        -0.08012779802083969,
        0.02721388265490532,
        0.033348750323057175
      ],
      "type": "VEC3"
    },
    {
      "bufferView": 2,
      "byteOffset": 6165768,
      "componentType": 5126,
      "count": 5374,
      "max": [
        0.9343452453613281,
        0.9897027611732483,
        0.9999321103096008
      ],
      "min": [
        -0.9439286589622498,
        -0.9896094799041748,
        0.14252471923828125
      ],
      "type": "VEC3"
    },
    {
      "bufferView": 1,
      "byteOffset": 2033760,
      "componentType": 5126,
      "count": 5374,
      "max": [
        1.0007703304290771,
        0.9760029911994934
      ],
      "min": [
        0.0009107589721679688,
        0.8197495937347412
      ],
      "type": "VEC2"
    },
    {
      "bufferView": 0,
      "byteOffset": 1773096,
      "componentType": 5125,
      "count": 8130,
      "type": "SCALAR"
    },
    {
      "bufferView": 2,
      "byteOffset": 6230256,
      "componentType": 5126,
      "count": 4410,
      "max": [
        0.0780806690454483,
        0.07627195864915848,
        0.030146770179271698
      ],
      "min": [
        -0.07808065414428711,
        -0.001434415578842163,
        -0.03332936018705368
      ],
      "type": "VEC3"
    },
    {
      "bufferView": 2,
      "byteOffset": 6283176,
      "componentType": 5126,
      "count": 4410,
      "max": [
        0.9999996423721313,
        1.0,
        0.9979316592216492
      ],
      "min": [
        -0.9999995231628418,
        -1.0,
        -0.9954582452774048
      ],
      "type": "VEC3"
    },
    {
      "bufferView": 1,
      "byteOffset": 2076752,
      "componentType": 5126,
      "count": 4410,
      "max": [
        0.9877261519432068,
        0.5022210478782654
      ],
      "min": [
        0.4782596826553345,
        0.011863663792610168
      ],
      "type": "VEC2"
    },
    {
      "bufferView": 0,
      "byteOffset": 1805616,
      "componentType": 5125,
      "count": 22656,
      "type": "SCALAR"
    }
  ],
  "asset": {
    "extras": {
      "author": "nubino (https://sketchfab.com/nubino)",
      "license": "CC-BY-4.0 (http://creativecommons.org/licenses/by/4.0/)",
      "source": "https://sketchfab.com/3d-models/bluetooth-speaker-1f78dfb5ca6b42d0bf97799061cc85b0",
      "title": "Bluetooth Speaker"
    },
    "generator": "Sketchfab-12.68.0",
    "version": "2.0"
  },
  "bufferViews": [
    {
      "buffer": 0,
      "byteLength": 1896240,
      "name": "floatBufferViews",
      "target": 34963
    },
    {
      "buffer": 0,
      "byteLength": 2112032,
      "byteOffset": 1896240,
      "byteStride": 8,
      "name": "floatBufferViews",
      "target": 34962
    },
    {
      "buffer": 0,
      "byteLength": 6336096,
      "byteOffset": 4008272,
      "byteStride": 12,
      "name": "floatBufferViews",
      "target": 34962
    }
  ],
  "buffers": [
    {
      "byteLength": 10344368,
      "uri": "scene.bin"
    }
  ],
  "images": [
    {
      "uri": "textures/Plaque_metallicRoughness.png"
    },
    {
      "uri": "textures/RubberButtons_emissive.png"
    }
  ],
  "materials": [
    {
      "doubleSided": true,
      "name": "Plaque",
      "pbrMetallicRoughness": {
        "baseColorFactor": [
          0.172232,
          0.172232,
          0.172232,
          1.0
        ],
        "metallicRoughnessTexture": {
          "index": 0
        },
        "roughnessFactor": 0.4465408805
      }
    },
    {
      "doubleSided": true,
      "name": "PlasticBlack",
      "pbrMetallicRoughness": {
        "baseColorFactor": [
          0.0,
          0.0,
          0.0,
          1.0
        ],
        "metallicFactor": 0.0,
        "roughnessFactor": 0.3899371069
      }
    },
    {
      "doubleSided": true,
      "name": "MetallPassive",
      "pbrMetallicRoughness": {
        "baseColorFactor": [
          0.8,
          0.8,
          0.8,
          1.0
        ],
        "metallicRoughnessTexture": {
          "index": 0
        },
        "roughnessFactor": 0.4402515723
      }
    },
    {
      "doubleSided": true,
      "emissiveFactor": [
        1.0,
        1.0,
        1.0
      ],
      "emissiveTexture": {
        "index": 1
      },
      "name": "RubberButtons",
      "pbrMetallicRoughness": {
        "baseColorFactor": [
          0.005097615,
          0.005097615,
          0.005097615,
          1.0
        ],
        "metallicFactor": 0.0,
        "roughnessFactor": 0.7987421384
      }
    },
    {
      "doubleSided": true,
      "name": "Mesh",
      "pbrMetallicRoughness": {
        "baseColorFactor": [
          0.0125786164,
          0.0125786164,
          0.0125786164,
          1.0
        ],
        "baseColorTexture": {
          "index": 1
        },
        "roughnessFactor": 0.3459119497
      }
    }
  ],
  "meshes": [
    {
      "name": "BluetoothSpeaker_Plaque_0",
      "primitives": [
        {
          "attributes": {
            "NORMAL": 1,
            "POSITION": 0,
            "TEXCOORD_0": 2
          },
          "indices": 3,
          "material": 0,
          "mode": 4
        }
      ]
    },
    {
      "name": "BluetoothSpeaker_PlasticBlack_0",
      "primitives": [
        {
          "attributes": {
            "NORMAL": 5,
            "POSITION": 4,
            "TEXCOORD_0": 6
          },
          "indices": 7,
          "material": 1,
          "mode": 4
        }
      ]
    },
    {
      "name": "BluetoothSpeaker_PlasticBlack_0",
      "primitives": [
        {
          "attributes": {
            "NORMAL": 9,
            "POSITION": 8,
            "TEXCOORD_0": 10
          },
          "indices": 11,
          "material": 1,
          "mode": 4
        }
      ]
    },
    {
      "name": "BluetoothSpeaker_PlasticBlack_0",
      "primitives": [
        {
          "attributes": {
            "NORMAL": 13,
            "POSITION": 12,
            "TEXCOORD_0": 14
          },
          "indices": 15,
          "material": 1,
          "mode": 4
        }
      ]
    },
    {
      "name": "BluetoothSpeaker_PlasticBlack_0",
      "primitives": [
        {
          "attributes": {
            "NORMAL": 17,
            "POSITION": 16,
            "TEXCOORD_0": 18
          },
          "indices": 19,
          "material": 1,
          "mode": 4
        }
      ]
    },
    {
      "name": "BluetoothSpeaker_MetallPassive_0",
      "primitives": [
        {
          "attributes": {
            "NORMAL": 21,
            "POSITION": 20,
            "TEXCOORD_0": 22
          },
          "indices": 23,
          "material": 2,
          "mode": 4
        }
      ]
    },
    {
      "name": "BluetoothSpeaker_RubberButtons_0",
      "primitives": [
        {
          "attributes": {
            "NORMAL": 25,
            "POSITION": 24,
            "TEXCOORD_0": 26
          },
          "indices": 27,
          "material": 3,
          "mode": 4
        }
      ]
    },
    {
      "name": "BluetoothSpeaker_Mesh_0",
      "primitives": [
        {
          "attributes": {
            "NORMAL": 29,
            "POSITION": 28,
            "TEXCOORD_0": 30
          },
          "indices": 31,
          "material": 4,
          "mode": 4
        }
      ]
    }
  ],
  "nodes": [
    {
      "children": [
        1
      ],
      "matrix": [
        0.009926372207701206,
        0.0,
        0.0,
        0.0,
        0.0,
        2.204097395197825e-18,
        -0.009926372207701206,
        0.0,
        0.0,
        0.009926372207701206,
        2.204097395197825e-18,
        0.0,
        0.0,
        1.6807133818019793e-07,
        -4.983194656915653e-08,
        1.0
      ],
      "name": "Sketchfab_model"
    },
    {
      "children": [
        2
      ],
      "matrix": [
        1.0,
        0.0,
        0.0,
        0.0,
        0.0,
        0.0,
        1.0,
        0.0,
        0.0,
        -1.0,
        0.0,
        0.0,
        0.0,
        0.0,
        0.0,
        1.0
      ],
      "name": "11fff23f7c6445fb9e1e2c83a38a95d1.fbx"
    },
    {
      "children": [
        3
      ],
      "name": "RootNode"
    },
    {
      "children": [
        4,
        5,
        6,
        7,
        8,
        9,
        10,
        11
      ],
      "matrix": [
        102.8222427368164,
        0.0,
        0.0,
        0.0,
        -0.0,
        -1.6751869643273934e-05,
        -102.82224273681504,
        0.0,
        0.0,
        102.82224273681504,
        -1.6751869643273934e-05,
        0.0,
        -2.5870072750677764e-09,
        4.51801872253418,
        3.7943215370178223,
        1.0
      ],
      "name": "BluetoothSpeaker"
    },
    {
      "mesh": 0,
      "name": "BluetoothSpeaker_Plaque_0"
    },
    {
      "mesh": 1,
      "name": "BluetoothSpeaker_PlasticBlack_0"
    },
    {
      "mesh": 2,
      "name": "BluetoothSpeaker_PlasticBlack_0"
    },
    {
      "mesh": 3,
      "name": "BluetoothSpeaker_PlasticBlack_0"
    },
    {
      "mesh": 4,
      "name": "BluetoothSpeaker_PlasticBlack_0"
    },
    {
      "mesh": 5,
      "name": "BluetoothSpeaker_MetallPassive_0"
    },
    {
      "mesh": 6,
      "name": "BluetoothSpeaker_RubberButtons_0"
    },
    {
      "mesh": 7,
      "name": "BluetoothSpeaker_Mesh_0"
    }
  ],
  "samplers": [
    {
      "magFilter": 9729,
      "minFilter": 9987,
      "wrapS": 10497,
      "wrapT": 10497
    }
  ],
  "scene": 0,
  "scenes": [
    {
      "name": "Sketchfab_Scene",
      "nodes": [
        0
      ]
    }
  ],
  "textures": [
    {
      "sampler": 0,
      "source": 0
    },
    {
      "sampler": 0,
      "source": 1
    }
  ]
}
